<?xml version="1.0" standalone="no"?>
<!DOCTYPE svg PUBLIC "-//W3C//DTD SVG 20010904//EN"
 "http://www.w3.org/TR/2001/REC-SVG-20010904/DTD/svg10.dtd">
<svg version="1.0" xmlns="http://www.w3.org/2000/svg"
 width="512.000000pt" height="512.000000pt" viewBox="0 0 512.000000 512.000000"
 preserveAspectRatio="xMidYMid meet">
<metadata>
Created by potrace 1.16, written by Peter Selinger 2001-2019
</metadata>
<g transform="translate(0.000000,512.000000) scale(0.100000,-0.100000)"
fill="#000000" stroke="none">
<path d="M3845 4821 c-72 -18 -142 -77 -169 -143 -10 -23 -16 -67 -16 -113 0
-83 -11 -115 -39 -115 -9 0 -52 18 -95 40 -92 48 -161 53 -236 19 -60 -27 -85
-51 -131 -131 l-40 -68 -457 -1 c-327 0 -467 -4 -492 -12 -25 -8 -40 -23 -53
-49 -23 -46 -16 -86 20 -122 l26 -26 416 0 416 0 0 -77 c1 -120 34 -171 160
-243 48 -28 56 -36 53 -59 -2 -20 -16 -34 -58 -58 -68 -40 -114 -83 -136 -125
-25 -48 -30 -145 -10 -193 28 -67 185 -331 214 -360 47 -47 100 -69 172 -69
58 0 74 5 147 44 81 43 83 43 103 25 17 -15 20 -31 20 -99 0 -64 5 -92 24
-132 36 -78 122 -134 205 -134 77 0 71 34 71 -416 l0 -404 -1880 0 -1880 0 2
1118 c2 861 6 1122 15 1138 24 42 52 44 608 44 l531 0 28 29 c32 34 38 96 12
136 -29 44 -61 46 -639 43 -526 -3 -543 -4 -587 -24 -68 -31 -106 -68 -139
-136 l-31 -61 0 -1400 0 -1401 21 -44 c27 -54 76 -105 132 -134 l42 -23 708
-3 707 -3 0 -32 c-1 -83 -48 -415 -63 -443 -22 -42 -69 -81 -115 -94 -20 -5
-76 -10 -123 -10 -77 0 -89 -3 -112 -24 -55 -51 -40 -143 28 -172 51 -21 1769
-21 1820 0 41 17 58 47 58 100 0 32 -6 45 -32 68 -29 26 -38 28 -114 28 -101
0 -148 12 -192 51 -48 43 -62 91 -85 299 -11 102 -23 195 -25 208 l-5 22 643
0 c715 0 697 -2 776 66 23 20 53 57 69 82 l27 47 3 673 3 672 42 0 c65 0 115
18 158 57 62 56 81 103 87 211 6 123 13 127 123 70 71 -38 89 -43 143 -42 75
1 143 30 184 79 15 19 67 105 117 191 87 152 90 160 93 229 6 114 -32 178
-143 241 -65 36 -86 64 -65 89 6 8 35 27 63 43 110 62 152 134 145 249 -4 65
-8 76 -96 228 -56 96 -110 177 -136 202 -81 77 -191 83 -314 17 -96 -53 -105
-47 -113 73 -9 145 -63 225 -173 258 -53 16 -382 20 -441 6z m389 -217 c12
-11 16 -36 16 -95 0 -90 13 -129 61 -184 48 -54 119 -85 196 -85 53 0 73 6
142 42 71 37 83 40 95 28 23 -24 166 -278 166 -295 0 -8 -21 -28 -47 -43 -117
-68 -168 -144 -168 -252 0 -103 42 -170 145 -231 43 -25 70 -48 70 -58 0 -21
-154 -291 -171 -302 -7 -4 -45 10 -88 32 -122 63 -199 62 -297 -4 -73 -49
-104 -115 -104 -222 0 -58 -4 -86 -14 -94 -9 -8 -68 -11 -187 -9 l-174 3 -6
95 c-4 69 -11 106 -27 136 -47 91 -163 153 -260 140 -25 -3 -79 -24 -120 -46
-56 -31 -78 -38 -88 -30 -7 6 -50 75 -95 153 -61 106 -79 145 -72 157 6 8 35
30 66 47 101 60 147 135 147 239 -1 103 -46 173 -151 235 -53 30 -70 45 -66
58 8 32 168 301 179 301 6 0 47 -18 92 -41 77 -39 85 -41 152 -37 157 10 244
113 244 288 0 38 5 71 12 78 8 8 61 12 174 12 134 0 165 -3 178 -16z m-274
-3143 c0 -128 0 -130 -26 -150 l-27 -21 -1827 0 -1827 0 -24 26 c-22 24 -24
34 -27 150 l-4 124 1881 0 1881 0 0 -129z m-1520 -383 c6 -92 63 -496 74 -527
9 -24 16 -45 16 -47 0 -2 -178 -4 -395 -4 -217 0 -395 2 -395 4 0 2 7 23 15
47 9 24 27 143 41 264 14 121 27 230 30 243 l4 22 305 0 c168 0 305 -1 305 -2z"/>
<path d="M3935 4126 c-117 -38 -207 -116 -258 -224 -30 -63 -32 -73 -32 -182
0 -111 1 -118 34 -182 129 -259 473 -316 676 -113 204 204 147 544 -113 672
-70 35 -83 38 -171 40 -59 2 -112 -3 -136 -11z m212 -217 c158 -76 159 -294 2
-373 -81 -40 -153 -32 -222 25 -58 48 -80 99 -75 175 3 50 10 72 33 106 59 83
170 112 262 67z"/>
<path d="M1733 4303 c-72 -14 -99 -119 -44 -174 40 -40 98 -41 142 -1 78 70 9
195 -98 175z"/>
<path d="M750 3728 c-194 -202 -210 -223 -210 -267 0 -47 14 -66 198 -256
l139 -145 47 0 c64 0 106 39 106 99 0 46 -14 65 -154 209 l-91 92 101 103
c131 132 144 151 144 199 0 59 -42 98 -105 98 l-47 0 -128 -132z"/>
<path d="M1624 3849 c-11 -6 -109 -154 -217 -329 -180 -290 -197 -322 -197
-363 0 -38 5 -49 31 -71 43 -36 98 -36 138 2 25 23 338 520 385 611 40 77 -2
162 -81 160 -21 0 -47 -5 -59 -10z"/>
<path d="M1981 3834 c-27 -22 -31 -32 -31 -75 0 -49 0 -50 115 -171 63 -67
115 -125 115 -129 0 -4 -52 -61 -115 -128 -114 -121 -115 -122 -115 -170 0
-43 4 -53 31 -75 23 -19 42 -26 74 -26 43 0 44 1 209 172 176 183 191 208 167
266 -7 15 -85 103 -174 195 -159 165 -163 168 -204 167 -30 0 -50 -7 -72 -26z"/>
<path d="M569 2781 c-23 -23 -29 -38 -29 -71 0 -33 6 -48 29 -71 l29 -29 902
0 901 0 24 24 c45 45 45 107 0 152 l-24 24 -901 0 -902 0 -29 -29z"/>
<path d="M2726 2779 c-18 -21 -26 -42 -26 -69 0 -27 8 -48 26 -69 22 -27 32
-31 74 -31 72 0 116 53 102 125 -2 13 -16 36 -29 50 -20 20 -36 25 -73 25 -42
0 -52 -4 -74 -31z"/>
<path d="M594 2294 c-61 -30 -74 -116 -25 -165 l29 -29 656 0 655 0 26 23 c20
16 28 35 32 68 5 41 2 50 -25 80 l-30 34 -644 2 c-564 2 -647 1 -674 -13z"/>
<path d="M2354 2294 c-61 -30 -74 -116 -25 -165 l29 -29 472 0 472 0 29 29
c41 41 41 98 0 143 l-29 33 -459 2 c-397 3 -462 1 -489 -13z"/>
</g>
</svg>
