<?xml version="1.0" standalone="no"?>
<!DOCTYPE svg PUBLIC "-//W3C//DTD SVG 20010904//EN"
 "http://www.w3.org/TR/2001/REC-SVG-20010904/DTD/svg10.dtd">
<svg version="1.0" xmlns="http://www.w3.org/2000/svg"
 width="512.000000pt" height="512.000000pt" viewBox="0 0 512.000000 512.000000"
 preserveAspectRatio="xMidYMid meet">
<metadata>
Created by potrace 1.16, written by Peter Selinger 2001-2019
</metadata>
<g transform="translate(0.000000,512.000000) scale(0.100000,-0.100000)"
fill="#000000" stroke="none">
<path d="M145 5101 c-22 -10 -57 -36 -77 -57 -74 -78 -68 102 -68 -2050 0
-1441 3 -1947 12 -1975 15 -51 69 -114 122 -142 l41 -22 1872 -3 1872 -2 3
-298 3 -297 33 -67 c59 -120 154 -181 292 -186 116 -5 184 20 261 97 94 95 99
116 99 461 l0 288 168 4 c148 3 172 6 207 25 52 28 89 67 114 123 20 45 21 55
21 1990 0 1875 -1 1946 -19 1985 -10 22 -36 57 -57 77 -78 74 150 68 -2486 68
-2292 0 -2374 -1 -2413 -19z m4772 -183 c23 -21 23 -24 23 -250 l0 -228 -2380
0 -2380 0 0 227 c0 219 1 227 22 250 l21 23 2336 0 2335 0 23 -22z m23 -2248
l0 -1591 -25 -24 c-23 -24 -29 -25 -165 -25 l-140 0 0 776 0 775 -123 292
-124 292 -6 115 c-16 290 -103 483 -286 630 -197 158 -528 223 -894 175 -284
-37 -497 -135 -673 -310 -227 -226 -360 -521 -459 -1025 -53 -267 -142 -443
-309 -618 -155 -162 -369 -268 -610 -301 -166 -23 -428 -9 -611 34 -37 8 -80
15 -96 15 -74 0 -108 -104 -51 -157 221 -208 543 -385 847 -464 189 -49 294
-63 490 -63 153 -1 196 3 285 22 411 92 735 359 946 781 101 202 160 386 218
677 19 94 44 200 56 235 116 347 371 579 639 579 100 0 158 -20 221 -77 58
-52 86 -101 100 -175 l10 -51 -128 -296 -127 -296 -3 -782 -2 -783 -1846 0
-1845 0 -24 25 -25 24 0 1591 0 1590 2380 0 2380 0 0 -1590z m-1253 1221 c154
-38 279 -112 355 -208 20 -26 36 -49 34 -50 -2 -2 -20 4 -42 14 -27 11 -77 18
-160 21 -101 4 -132 1 -198 -17 -240 -66 -433 -237 -565 -500 -59 -116 -94
-229 -135 -437 -71 -361 -158 -591 -307 -814 -326 -487 -863 -646 -1491 -440
-113 37 -282 112 -354 156 l-31 19 146 1 c460 2 844 198 1075 547 114 172 161
293 210 540 81 401 177 641 336 842 139 174 363 299 600 334 41 6 86 13 100
15 14 3 97 3 185 1 118 -3 182 -9 242 -24z m669 -1177 l74 -175 0 -969 0 -970
-165 0 -165 0 0 965 0 965 82 195 c59 138 85 190 91 179 5 -8 42 -94 83 -190z
m72 -2364 c-4 -77 -21 -109 -79 -148 -28 -20 -44 -23 -90 -20 -99 7 -158 76
-159 186 l0 52 166 0 166 0 -4 -70z"/>
<path d="M4565 4858 c-27 -15 -44 -39 -45 -60 0 -11 -8 -18 -18 -18 -10 0 -28
-9 -40 -20 -48 -45 -38 -113 21 -145 20 -11 37 -26 37 -33 0 -28 48 -62 88
-62 40 0 66 20 91 68 6 12 18 22 25 22 25 0 56 45 56 84 0 39 -35 86 -64 86
-9 0 -18 11 -22 25 -13 52 -81 80 -129 53z"/>
<path d="M365 4755 c-68 -67 8 -181 96 -144 31 12 59 54 59 88 0 11 -12 33
-26 50 -34 41 -92 44 -129 6z"/>
<path d="M705 4755 c-33 -32 -33 -84 -2 -119 70 -81 193 6 143 102 -17 34 -33
42 -82 42 -24 0 -43 -8 -59 -25z"/>
<path d="M1045 4755 c-33 -32 -33 -84 -1 -122 19 -22 32 -28 66 -28 34 0 47 6
67 30 21 24 24 36 20 69 -7 51 -36 76 -89 76 -28 0 -46 -7 -63 -25z"/>
<path d="M3095 4755 c-35 -34 -34 -93 1 -126 l26 -24 491 -3 c365 -2 499 1
520 9 34 14 61 69 51 102 -3 12 -16 32 -27 45 l-20 22 -509 0 -509 0 -24 -25z"/>
</g>
</svg>
